<?xml version="1.0" standalone="no"?>
<!DOCTYPE svg PUBLIC "-//W3C//DTD SVG 20010904//EN"
 "http://www.w3.org/TR/2001/REC-SVG-20010904/DTD/svg10.dtd">
<svg version="1.0" xmlns="http://www.w3.org/2000/svg"
 width="700.000000pt" height="700.000000pt" viewBox="0 0 700.000000 700.000000"
 preserveAspectRatio="xMidYMid meet">
<metadata>
Created by potrace 1.14, written by Peter Selinger 2001-2017
</metadata>
<g transform="translate(0.000000,700.000000) scale(0.100000,-0.100000)"
fill="#000000" stroke="none">
<path d="M4882 5830 c-403 -401 -735 -730 -739 -730 -3 0 -332 325 -730 723
-398 397 -726 724 -729 727 -6 5 -944 -931 -944 -942 0 -8 3857 -3868 3864
-3868 3 0 217 212 476 472 l472 471 -356 356 c-196 196 -524 525 -730 731
l-375 375 736 736 736 737 -441 438 c-242 242 -456 454 -474 472 l-34 32 -732
-730z"/>
<path d="M919 4794 c-260 -260 -471 -475 -469 -478 3 -3 331 -331 729 -730
l725 -725 -20 -22 c-10 -13 -327 -332 -704 -710 -377 -378 -697 -700 -712
-716 l-28 -29 471 -473 471 -474 732 732 c402 402 736 731 741 731 5 0 337
-327 736 -726 l726 -725 471 471 c260 259 472 473 472 476 0 2 -870 874 -1934
1938 l-1934 1934 -473 -474z"/>
</g>
</svg>
